<mxfile host="app.diagrams.net" modified="2024-06-25T20:11:44.231Z" agent="Mozilla/5.0 (Macintosh; Intel Mac OS X 10_15_7) AppleWebKit/605.1.15 (KHTML, like Gecko) Version/17.5 Safari/605.1.15" etag="5HEJc5ljaebTHJqAT3Hb" version="24.6.2" type="github">
  <diagram name="Page-1" id="ybwnhUv_yuMlzH-fVToa">
    <mxGraphModel dx="5723" dy="-1416" grid="1" gridSize="10" guides="1" tooltips="1" connect="1" arrows="1" fold="1" page="1" pageScale="1" pageWidth="827" pageHeight="1169" math="0" shadow="0">
      <root>
        <mxCell id="0" />
        <mxCell id="1" parent="0" />
        <mxCell id="VgnIyd7TIrYC-80sPvbX-199" style="edgeStyle=orthogonalEdgeStyle;rounded=0;orthogonalLoop=1;jettySize=auto;html=1;entryX=0;entryY=0.5;entryDx=0;entryDy=0;strokeWidth=4;" parent="1" source="VgnIyd7TIrYC-80sPvbX-197" target="VgnIyd7TIrYC-80sPvbX-198" edge="1">
          <mxGeometry relative="1" as="geometry" />
        </mxCell>
        <mxCell id="VgnIyd7TIrYC-80sPvbX-197" value="&lt;font style=&quot;font-size: 41px;&quot;&gt;ML Model&lt;/font&gt;&lt;div&gt;&lt;font style=&quot;font-size: 41px;&quot;&gt;(t)&lt;/font&gt;&lt;/div&gt;" style="shape=ext;double=1;rounded=1;whiteSpace=wrap;html=1;strokeWidth=3;" parent="1" vertex="1">
          <mxGeometry x="312.95" y="4990" width="260" height="160" as="geometry" />
        </mxCell>
        <mxCell id="VgnIyd7TIrYC-80sPvbX-211" value="&lt;font style=&quot;font-size: 23px;&quot;&gt;Update State&lt;/font&gt;" style="edgeStyle=orthogonalEdgeStyle;rounded=0;orthogonalLoop=1;jettySize=auto;html=1;entryX=0.5;entryY=0;entryDx=0;entryDy=0;strokeWidth=3;" parent="1" source="VgnIyd7TIrYC-80sPvbX-198" target="VgnIyd7TIrYC-80sPvbX-209" edge="1">
          <mxGeometry x="-0.0811" relative="1" as="geometry">
            <mxPoint y="1" as="offset" />
          </mxGeometry>
        </mxCell>
        <mxCell id="VgnIyd7TIrYC-80sPvbX-198" value="&lt;font style=&quot;font-size: 27px;&quot;&gt;Predicted State (t)&lt;/font&gt;" style="rounded=1;whiteSpace=wrap;html=1;strokeWidth=4;" parent="1" vertex="1">
          <mxGeometry x="730" y="5025" width="160" height="90" as="geometry" />
        </mxCell>
        <mxCell id="VgnIyd7TIrYC-80sPvbX-208" value="&lt;font style=&quot;font-size: 23px;&quot;&gt;Predict&lt;/font&gt;" style="edgeStyle=orthogonalEdgeStyle;rounded=0;orthogonalLoop=1;jettySize=auto;html=1;entryX=0;entryY=0.5;entryDx=0;entryDy=0;strokeWidth=3;" parent="1" source="VgnIyd7TIrYC-80sPvbX-201" target="VgnIyd7TIrYC-80sPvbX-206" edge="1">
          <mxGeometry x="0.037" y="20" relative="1" as="geometry">
            <mxPoint as="offset" />
          </mxGeometry>
        </mxCell>
        <mxCell id="VgnIyd7TIrYC-80sPvbX-201" value="&lt;font style=&quot;font-size: 41px;&quot;&gt;Kalman Filter State (t-1)&lt;/font&gt;" style="shape=ext;double=1;rounded=1;whiteSpace=wrap;html=1;strokeWidth=3;" parent="1" vertex="1">
          <mxGeometry x="-62.77000000000005" y="5300" width="260" height="160" as="geometry" />
        </mxCell>
        <mxCell id="VgnIyd7TIrYC-80sPvbX-210" style="edgeStyle=orthogonalEdgeStyle;rounded=0;orthogonalLoop=1;jettySize=auto;html=1;entryX=0;entryY=0.5;entryDx=0;entryDy=0;fontSize=17;strokeWidth=3;dashed=1;" parent="1" source="VgnIyd7TIrYC-80sPvbX-206" target="VgnIyd7TIrYC-80sPvbX-209" edge="1">
          <mxGeometry relative="1" as="geometry" />
        </mxCell>
        <mxCell id="VgnIyd7TIrYC-80sPvbX-206" value="&lt;font style=&quot;font-size: 41px;&quot;&gt;Kalman Filter State (t)&lt;/font&gt;" style="shape=ext;double=1;rounded=1;whiteSpace=wrap;html=1;strokeWidth=3;" parent="1" vertex="1">
          <mxGeometry x="312.95" y="5300" width="260" height="160" as="geometry" />
        </mxCell>
        <mxCell id="VgnIyd7TIrYC-80sPvbX-213" style="edgeStyle=orthogonalEdgeStyle;rounded=0;orthogonalLoop=1;jettySize=auto;html=1;entryX=0;entryY=0.5;entryDx=0;entryDy=0;strokeWidth=3;" parent="1" source="VgnIyd7TIrYC-80sPvbX-209" target="VgnIyd7TIrYC-80sPvbX-212" edge="1">
          <mxGeometry relative="1" as="geometry" />
        </mxCell>
        <mxCell id="VgnIyd7TIrYC-80sPvbX-209" value="&lt;font style=&quot;font-size: 41px;&quot;&gt;Kalman Filter State (t)&lt;/font&gt;" style="shape=ext;double=1;rounded=1;whiteSpace=wrap;html=1;strokeWidth=3;" parent="1" vertex="1">
          <mxGeometry x="680" y="5300" width="260" height="160" as="geometry" />
        </mxCell>
        <mxCell id="VgnIyd7TIrYC-80sPvbX-212" value="&lt;font style=&quot;font-size: 27px;&quot;&gt;Refined Prediction (t)&lt;/font&gt;" style="rounded=1;whiteSpace=wrap;html=1;strokeWidth=4;" parent="1" vertex="1">
          <mxGeometry x="1050" y="5335" width="170" height="90" as="geometry" />
        </mxCell>
      </root>
    </mxGraphModel>
  </diagram>
</mxfile>
